<svg width="180" height="57" viewBox="0 0 180 57" fill="none" xmlns="http://www.w3.org/2000/svg">
<path d="M28.2784 22.19C28.2784 23.412 27.3573 24.4014 26.2217 24.4014C25.0861 24.4014 24.165 23.4101 24.165 22.19C24.165 20.9698 25.0861 19.9766 26.2217 19.9766C27.3573 19.9766 28.2784 20.9678 28.2784 22.19Z" fill="white"/>
<path d="M22.1638 21.6386C22.5227 20.7061 22.1113 19.6372 21.2448 19.2509C20.3784 18.8647 19.3851 19.3075 19.0262 20.2399C18.6673 21.1724 19.0788 22.2414 19.9452 22.6276C20.8116 23.0138 21.8049 22.571 22.1638 21.6386Z" fill="white"/>
<path d="M33.5854 21.2329C33.7357 20.2366 33.1071 19.2979 32.1813 19.1362C31.2557 18.9745 30.3834 19.651 30.2331 20.6472C30.0829 21.6435 30.7115 22.5821 31.6372 22.7439C32.5629 22.9056 33.4352 22.229 33.5854 21.2329Z" fill="white"/>
<path d="M29.5443 28.0703L29.5021 32.4706L29.0029 33.4241L28.5986 37.3476H23.7627L23.3901 33.4241L22.9014 32.4763L22.9119 28.0703H23.4024L23.3988 24.79H29.0134V28.0703H29.5443Z" fill="white"/>
<path d="M23.1511 23.6675L22.3232 25.3626V27.8313H21.6851V33.7109H22.237V37.3469H20.8132L18.3065 35.1506V30.2585L17.2852 29.1915V25.3607H17.9655L17.9707 23.6675L18.3592 23.0338H19.5651L20.0274 23.6675H21.1735L21.62 23.0282L22.6677 23.0225L23.1511 23.6675Z" fill="white"/>
<path d="M35.2286 25.3607V29.1915L34.2021 30.2585V35.1506L31.6813 37.3469H30.2487V33.7109H30.8042V27.8313H30.1643V25.3626L29.3311 23.6675L29.8162 23.0225L30.8692 23.0282L31.3174 23.6675H32.4723L32.9417 23.0262H34.1546L34.5396 23.6675L34.5448 25.3607H35.2286Z" fill="white"/>
<path d="M11.0654 22.7617C10.7402 23.8041 10.5064 24.8918 10.3711 26.0118H13.0325C13.1327 25.3213 13.2786 24.6459 13.4666 23.9913L11.0654 22.7636V22.7617Z" fill="#EFC100"/>
<path d="M19.0569 12.834C17.9758 13.4204 16.9668 14.1355 16.0439 14.9622L17.9161 16.977C18.6139 16.3754 19.368 15.8476 20.1714 15.4068L19.0586 12.8359L19.0569 12.834Z" fill="#1FCC71"/>
<path d="M27.6123 11.0537V13.9008C28.4121 13.9878 29.1908 14.1505 29.9432 14.3832L31.0049 11.765C29.9186 11.4018 28.783 11.1596 27.6123 11.0537Z" fill="#EFC100"/>
<path d="M38.4233 17.0292L36.5547 19.0402C37.0416 19.6701 37.4793 20.3455 37.8608 21.0587L40.378 20.0958C39.8296 18.9967 39.1721 17.9675 38.4233 17.0273V17.0292Z" fill="#1FCC71"/>
<path d="M39.624 28.9102C39.2935 36.5358 33.4241 42.6311 26.2573 42.6311C19.0906 42.6311 13.2212 36.5358 12.8907 28.9102H10.2539C10.5879 38.1004 17.6386 45.4669 26.2573 45.4669C34.8761 45.4669 41.9285 38.1004 42.2608 28.9102H39.624Z" fill="white"/>
<path d="M42.1422 26.0119C42.0087 24.8939 41.7731 23.8061 41.4497 22.7656L38.9658 23.7153C39.1943 24.4569 39.3666 25.223 39.4809 26.0119H42.1422Z" fill="#2A99F4"/>
<path d="M33.501 12.8583L32.4463 15.4614C33.2233 15.9003 33.9563 16.4186 34.6348 17.007L36.5069 14.9923C35.5876 14.1656 34.5786 13.4467 33.5028 12.8564L33.501 12.8583Z" fill="#ED410C"/>
<path d="M21.5586 11.7499L22.6836 14.351C23.4061 14.1354 24.1514 13.984 24.9179 13.9008V11.0537C23.7594 11.1577 22.6344 11.3942 21.5586 11.7499Z" fill="#2A99F4"/>
<path d="M14.1204 16.9921C13.3575 17.9437 12.6912 18.9841 12.1357 20.0984L14.5176 21.3167C14.9377 20.4919 15.4317 19.7182 15.989 19.0012L14.1204 16.9902V16.9921Z" fill="#ED410C"/>
<path d="M6.41972 20.3838C5.80625 22.1829 5.40546 24.0709 5.23145 26.0099H7.8823C8.04046 24.4852 8.35867 23.0134 8.8192 21.6116L6.41972 20.3838Z" fill="#EFC100"/>
<path d="M16.895 7.83984C15.2936 8.69304 13.7889 9.76945 12.416 11.0559L14.2916 13.0744C15.4237 12.0377 16.6718 11.1448 18.0148 10.4221L16.8968 7.83984H16.895Z" fill="#1FCC71"/>
<path d="M27.6123 5.54297V8.38632C29.1328 8.50547 30.6006 8.82139 31.9964 9.31516L33.0581 6.69693C31.3143 6.05943 29.4879 5.66972 27.6123 5.54486V5.54297Z" fill="#EFC100"/>
<path d="M42.0479 13.1289L40.1758 15.1436C41.1743 16.3713 42.0338 17.7315 42.7299 19.1958L45.2419 18.2347C44.4069 16.4016 43.3364 14.6839 42.0479 13.127V13.1289Z" fill="#1FCC71"/>
<path d="M44.7334 28.9102C44.3994 39.5684 36.2395 48.1267 26.2549 48.1267C16.2703 48.1267 8.11218 39.5684 7.77644 28.9102H5.13965C5.29786 34.7273 7.4776 40.1718 11.3167 44.3034C15.307 48.5978 20.6104 50.9625 26.2531 50.9625C31.8958 50.9625 37.201 48.5978 41.1895 44.3034C45.1781 40.0091 47.2084 34.7273 47.3667 28.9102H44.7299H44.7334Z" fill="white"/>
<path d="M47.2827 26.0117C47.1262 24.2636 46.7852 22.5573 46.2702 20.9209L43.7793 21.8744C44.1942 23.1967 44.4842 24.5833 44.6319 26.0135H47.2827V26.0117Z" fill="#2A99F4"/>
<path d="M35.5493 7.80176L34.4893 10.4162C35.8481 11.1464 37.1137 12.0525 38.2581 13.1081L40.1337 11.0896C38.7309 9.76916 37.1911 8.66818 35.5493 7.80176Z" fill="#ED410C"/>
<path d="M19.3816 6.72143L20.5049 9.3169C21.9094 8.82126 23.3878 8.50156 24.9171 8.38241V5.53906C23.0098 5.66581 21.1518 6.06495 19.3799 6.71951L19.3816 6.72143Z" fill="#2A99F4"/>
<path d="M10.4981 13.0928C9.31329 14.5153 8.31308 16.0723 7.50977 17.7314L9.90219 18.9553C10.5842 17.5668 11.4139 16.2766 12.3702 15.1075L10.4981 13.0928Z" fill="#ED410C"/>
<path d="M27.6123 0V2.84143C29.8588 2.97764 32.0227 3.45436 34.0601 4.22431L35.1183 1.61368C32.7048 0.681033 30.191 0.141882 27.6123 0Z" fill="#EFC100"/>
<path d="M45.6883 9.21094L43.8145 11.2276C45.335 13.0455 46.6182 15.0981 47.6044 17.3323L50.1076 16.375C48.9808 13.7531 47.4989 11.3505 45.6883 9.21094Z" fill="#1FCC71"/>
<path d="M49.8789 28.9102C49.5432 42.6198 39.0752 53.6601 26.2569 53.6601C13.4387 53.6601 2.97252 42.6198 2.63501 28.9102H0C0.0773453 32.4856 0.769937 35.9532 2.05668 39.2316C3.37858 42.5971 5.27179 45.6201 7.68353 48.2156C10.0953 50.8111 12.9044 52.8486 16.0316 54.273C19.2713 55.7467 22.7114 56.4959 26.2552 56.4959C29.799 56.4959 33.2391 55.7486 36.4788 54.273C39.6061 52.8486 42.4151 50.8111 44.8268 48.2156C47.2386 45.6201 49.1318 42.5971 50.4555 39.2316C51.7422 35.9532 52.4348 32.4856 52.5122 28.9102H49.8772H49.8789Z" fill="white"/>
<path d="M17.2041 1.68935L18.3238 4.27539C20.4034 3.47328 22.6183 2.97953 24.9193 2.84143V0C22.2667 0.141883 19.6809 0.707518 17.2041 1.68935Z" fill="#2A99F4"/>
<path d="M6.85751 9.1748C5.27014 11.0439 3.9342 13.1135 2.86719 15.3571L5.2561 16.5792C6.19656 14.6212 7.36904 12.8108 8.72961 11.1914L6.85572 9.1748H6.85751Z" fill="#ED410C"/>
<path d="M63.2998 23.4904V12.8662H64.7872L68.2009 20.3917L71.6145 12.8662H73.1014V23.4904H71.5598V16.68L68.5293 23.4904H67.8719L64.8488 16.68V23.4904H63.2998Z" fill="white"/>
<path d="M81.4399 15.5215V23.4896H79.8557V18.2892L76.3315 23.4896H75.0078V15.5215H76.5915V20.5895L80.1283 15.5215H81.4378H81.4399Z" fill="white"/>
<path d="M83.3594 23.4896V15.5215H88.6383V17.1882H85.0115V23.4896H83.3594Z" fill="white"/>
<path d="M89.9268 27.0316V15.522H91.3873V21.1142H91.5931V27.0316H89.9268ZM93.4983 23.7115C92.7762 23.7115 92.1715 23.528 91.6825 23.1591C91.1941 22.7902 90.8247 22.287 90.5789 21.6495C90.3325 21.012 90.2078 20.2988 90.2078 19.5061C90.2078 18.7135 90.331 17.9871 90.5789 17.3514C90.8247 16.7177 91.1868 16.2163 91.6652 15.8493C92.1431 15.4823 92.7341 15.2988 93.4373 15.2988C94.1399 15.2988 94.7431 15.4823 95.2562 15.8493C95.7699 16.2163 96.1689 16.7158 96.4536 17.3476C96.7368 17.9795 96.8789 18.6983 96.8789 19.5061C96.8789 20.3139 96.7399 21.0195 96.4604 21.6533C96.181 22.287 95.7889 22.7902 95.281 23.1591C94.7731 23.528 94.1789 23.7115 93.4983 23.7115ZM93.2452 22.1186C93.6741 22.1186 94.0294 22.0032 94.3073 21.7724C94.5868 21.5417 94.7925 21.2277 94.9278 20.8322C95.0631 20.4369 95.1299 19.9942 95.1299 19.508C95.1299 19.0218 95.0615 18.5867 94.9241 18.1914C94.7873 17.796 94.5741 17.4801 94.2862 17.2474C93.9978 17.0147 93.632 16.8974 93.1894 16.8974C92.7462 16.8974 92.4262 17.0071 92.161 17.2266C91.8952 17.446 91.7004 17.7506 91.5757 18.1421C91.4489 18.5338 91.3873 18.9897 91.3873 19.5099C91.3873 20.0302 91.4504 20.4804 91.5757 20.8739C91.7004 21.2674 91.9004 21.5738 92.1715 21.7933C92.4436 22.0127 92.8004 22.1224 93.2436 22.1224L93.2452 22.1186Z" fill="white"/>
<path d="M100.458 23.7115C99.9235 23.7115 99.4698 23.6018 99.1008 23.3823C98.7314 23.1629 98.4503 22.8716 98.2603 22.5084C98.0708 22.1451 97.9756 21.7441 97.9756 21.3052C97.9756 20.9212 98.0356 20.5769 98.1535 20.2685C98.273 19.962 98.4556 19.6953 98.7019 19.4721C98.9477 19.2488 99.2677 19.0653 99.6614 18.9216C99.9587 18.8175 100.307 18.7248 100.707 18.6416C101.107 18.5583 101.541 18.4808 102.01 18.4089C102.478 18.337 102.968 18.2594 103.481 18.1762L102.892 18.5376C102.898 17.9871 102.783 17.5803 102.55 17.3211C102.316 17.0601 101.924 16.9295 101.37 16.9295C101.036 16.9295 100.715 17.0128 100.403 17.1812C100.092 17.3476 99.8761 17.6371 99.7508 18.0438L98.243 17.5349C98.4256 16.8614 98.7735 16.3204 99.2887 15.9118C99.8019 15.5032 100.497 15.2988 101.37 15.2988C102.028 15.2988 102.608 15.4142 103.109 15.645C103.61 15.8758 103.98 16.2542 104.223 16.782C104.355 17.0619 104.436 17.3495 104.462 17.6409C104.49 17.9341 104.502 18.2519 104.502 18.5962V23.4883H103.056V21.7611L103.295 22.0411C102.961 22.6162 102.572 23.0381 102.126 23.3067C101.681 23.5753 101.124 23.7078 100.456 23.7078L100.458 23.7115ZM100.787 22.2946C101.161 22.2946 101.481 22.2227 101.746 22.0808C102.012 21.9389 102.222 21.763 102.381 21.5568C102.539 21.3506 102.645 21.1557 102.699 20.9742C102.785 20.7471 102.835 20.488 102.847 20.1966C102.857 19.9034 102.864 19.6669 102.864 19.4853L103.372 19.648C102.875 19.7313 102.446 19.805 102.091 19.8693C101.736 19.9337 101.428 19.9942 101.171 20.051C100.915 20.1077 100.69 20.1701 100.493 20.2401C100.301 20.3139 100.138 20.399 100.006 20.4974C99.874 20.5958 99.7724 20.7093 99.7003 20.836C99.6298 20.9647 99.5945 21.1141 99.5945 21.2863C99.5945 21.483 99.6403 21.6571 99.7319 21.8065C99.823 21.9559 99.9566 22.0751 100.132 22.1641C100.308 22.253 100.526 22.2965 100.787 22.2965V22.2946Z" fill="white"/>
<path d="M112.481 25.1638V23.4896H106.271V15.5215H107.923V21.823H111.048V15.5215H112.701V21.91H114.134V25.1638H112.481Z" fill="white"/>
<path d="M121.646 15.5215V23.4896H120.063V18.2892L116.539 23.4896H115.215V15.5215H116.799V20.5895L120.335 15.5215H121.645H121.646Z" fill="white"/>
<path d="M126.835 23.7116C126.095 23.7116 125.449 23.5319 124.895 23.1724C124.341 22.813 123.914 22.3173 123.61 21.6855C123.305 21.0536 123.154 20.3272 123.154 19.5062C123.154 18.6852 123.309 17.9379 123.62 17.3079C123.931 16.678 124.362 16.1861 124.916 15.8323C125.47 15.4786 126.109 15.3008 126.835 15.3008C127.561 15.3008 128.229 15.4805 128.783 15.8399C129.336 16.1993 129.765 16.695 130.072 17.3268C130.377 17.9587 130.53 18.6852 130.53 19.5062C130.53 20.3272 130.375 21.0612 130.068 21.693C129.76 22.3249 129.328 22.8187 128.776 23.1762C128.222 23.5319 127.575 23.7116 126.835 23.7116ZM126.835 22.0449C127.493 22.0449 127.983 21.8085 128.303 21.3374C128.623 20.8644 128.783 20.2553 128.783 19.5081C128.783 18.7608 128.621 18.1195 128.296 17.6598C127.971 17.2001 127.484 16.9693 126.835 16.9693C126.392 16.9693 126.026 17.0771 125.742 17.2909C125.455 17.5047 125.244 17.8036 125.107 18.1838C124.97 18.5641 124.902 19.0067 124.902 19.5081C124.902 20.2799 125.065 20.8966 125.392 21.3563C125.719 21.816 126.201 22.0468 126.835 22.0468V22.0449Z" fill="white"/>
<path d="M132.026 23.4896V15.5215H133.678V18.6637H137.003V15.5215H138.655V23.4896H137.003V20.3323H133.678V23.4896H132.026Z" fill="white"/>
<path d="M140.562 23.4896V15.5215H142.214V18.6637H145.538V15.5215H147.19V23.4896H145.538V20.3323H142.214V23.4896H140.562Z" fill="white"/>
<path d="M149.103 23.4896L149.096 15.5215H150.748V18.1776H151.578C151.784 18.1776 152.016 18.1832 152.274 18.1927C152.533 18.2021 152.748 18.2249 152.923 18.2589C153.339 18.3573 153.694 18.5143 153.988 18.7319C154.283 18.9475 154.508 19.2313 154.663 19.5793C154.817 19.9293 154.897 20.3493 154.897 20.8412C154.897 21.5449 154.728 22.1067 154.389 22.5267C154.051 22.9467 153.577 23.2342 152.97 23.3856C152.793 23.4291 152.569 23.4575 152.306 23.4707C152.04 23.4839 151.805 23.4896 151.599 23.4896H149.103ZM150.748 22.0954H151.741C151.841 22.0954 151.954 22.0897 152.077 22.0802C152.2 22.0708 152.316 22.0481 152.427 22.014C152.633 21.9554 152.815 21.8211 152.975 21.6111C153.135 21.403 153.214 21.1457 153.214 20.8393C153.214 20.5328 153.134 20.2566 152.975 20.0504C152.815 19.8442 152.618 19.708 152.386 19.6456C152.277 19.6153 152.167 19.5964 152.054 19.5869C151.941 19.5775 151.838 19.5718 151.743 19.5718H150.75V22.0954H150.748ZM155.67 23.4896V15.5215H157.323V23.4896H155.67Z" fill="white"/>
<path d="M165.66 15.5223V23.4904H164.076V18.2899L160.551 23.4904H159.228V15.5223H160.812V20.5903L164.348 15.5223H165.658H165.66ZM162.664 14.6218C162.284 14.6218 161.938 14.5216 161.622 14.3191C161.307 14.1167 161.056 13.8481 160.868 13.5114C160.68 13.1746 160.586 12.8 160.586 12.3857H161.875C161.875 12.6222 161.952 12.8227 162.105 12.9873C162.258 13.1519 162.444 13.2352 162.664 13.2352C162.884 13.2352 163.07 13.1519 163.223 12.9873C163.376 12.8227 163.453 12.6222 163.453 12.3857H164.742C164.742 12.7982 164.649 13.1746 164.461 13.5114C164.273 13.8481 164.021 14.1186 163.706 14.3191C163.392 14.5216 163.044 14.6218 162.664 14.6218Z" fill="white"/>
<path d="M63.2861 41.1947L63.3003 33.2266H64.974V37.0631L67.6809 33.2266H69.7446L66.8724 37.2106L69.9909 41.1947H67.804L64.9719 37.3582V41.1947H63.2861Z" fill="white"/>
<path d="M72.7467 41.4166C72.212 41.4166 71.7589 41.3069 71.3894 41.0874C71.0204 40.8679 70.7394 40.5766 70.5494 40.2134C70.3594 39.8502 70.2646 39.4491 70.2646 39.0102C70.2646 38.6262 70.3241 38.2819 70.442 37.9735C70.5615 37.6671 70.7446 37.4003 70.9904 37.1771C71.2368 36.9539 71.5567 36.7704 71.9504 36.6266C72.2473 36.5226 72.5957 36.4299 72.9962 36.3466C73.3952 36.2634 73.8294 36.1859 74.2989 36.1139C74.7662 36.0421 75.2567 35.9645 75.7699 35.8812L75.1815 36.2426C75.1868 35.6921 75.0725 35.2854 74.8383 35.0262C74.6046 34.7651 74.2125 34.6346 73.6589 34.6346C73.3252 34.6346 73.0031 34.7178 72.692 34.8862C72.381 35.0527 72.1646 35.3421 72.0399 35.7488L70.532 35.2399C70.7146 34.5665 71.0625 34.0255 71.5778 33.6168C72.091 33.2082 72.7852 33.0039 73.6589 33.0039C74.3162 33.0039 74.8968 33.1193 75.3973 33.3501C75.8983 33.5809 76.2694 33.9592 76.512 34.487C76.6436 34.767 76.7246 35.0545 76.751 35.3459C76.7794 35.6391 76.7915 35.9569 76.7915 36.3012V41.1934H75.3446V39.4662L75.5836 39.7462C75.2499 40.3212 74.8615 40.7431 74.4146 41.0117C73.9699 41.2804 73.4131 41.4128 72.7446 41.4128L72.7467 41.4166ZM73.0752 39.9997C73.4499 39.9997 73.7699 39.9277 74.0352 39.7859C74.3004 39.644 74.5115 39.468 74.6699 39.2618C74.8278 39.0556 74.9336 38.8608 74.9878 38.6792C75.0741 38.4522 75.1231 38.193 75.1357 37.9017C75.1462 37.6084 75.1531 37.372 75.1531 37.1903L75.661 37.3531C75.1636 37.4363 74.7346 37.5101 74.3799 37.5744C74.0246 37.6387 73.7167 37.6993 73.4604 37.756C73.2036 37.8128 72.9789 37.8752 72.782 37.9452C72.5904 38.019 72.4268 38.1041 72.2946 38.2025C72.1631 38.3008 72.061 38.4143 71.9889 38.5411C71.9189 38.6697 71.8836 38.8192 71.8836 38.9913C71.8836 39.188 71.9294 39.3621 72.0204 39.5115C72.112 39.661 72.2457 39.7802 72.4215 39.8691C72.5973 39.958 72.8152 40.0015 73.0752 40.0015V39.9997Z" fill="white"/>
<path d="M78.0254 42.9654V39.8005C78.4275 39.8005 78.7122 39.653 78.8828 39.3578C79.0517 39.0627 79.187 38.5519 79.2875 37.8237C79.3507 37.3904 79.4033 36.9326 79.4454 36.4521C79.4859 35.9697 79.5228 35.4608 79.5512 34.9254C79.5791 34.3901 79.607 33.8244 79.6301 33.2285H85.1428V39.8024H85.8896V42.9674H84.327V41.1967H79.5828V42.9674H78.027L78.0254 42.9654ZM80.2401 39.8005H83.4954V34.6209H81.0749C81.0612 34.916 81.0454 35.2168 81.0275 35.5251C81.0101 35.8316 80.9891 36.138 80.9659 36.4445C80.9433 36.7491 80.9186 37.0404 80.8938 37.3185C80.8696 37.5966 80.8396 37.8539 80.808 38.0904C80.757 38.5028 80.6954 38.8433 80.6233 39.1081C80.5496 39.373 80.4228 39.6057 80.2401 39.8024V39.8005Z" fill="white"/>
<path d="M87.2471 44.7366V33.2271H88.7076V38.8192H88.9134V44.7366H87.2471ZM90.8186 41.4166C90.0965 41.4166 89.4918 41.2331 89.0029 40.8642C88.5144 40.4953 88.145 39.9921 87.8992 39.3545C87.6529 38.717 87.5281 38.0038 87.5281 37.2111C87.5281 36.4185 87.6513 35.6921 87.8992 35.0565C88.145 34.4227 88.5071 33.9214 88.9855 33.5544C89.4634 33.1874 90.0544 33.0039 90.7576 33.0039C91.4602 33.0039 92.0634 33.1874 92.5765 33.5544C93.0902 33.9214 93.4892 34.4208 93.7739 35.0527C94.0571 35.6845 94.1992 36.4034 94.1992 37.2111C94.1992 38.019 94.0602 38.7246 93.7808 39.3583C93.5013 39.9921 93.1092 40.4953 92.6013 40.8642C92.0934 41.2331 91.4992 41.4166 90.8186 41.4166ZM90.5655 39.8237C90.9944 39.8237 91.3497 39.7083 91.6276 39.4775C91.9071 39.2467 92.1129 38.9327 92.2481 38.5373C92.3834 38.1419 92.4502 37.6993 92.4502 37.2131C92.4502 36.7269 92.3818 36.2918 92.2444 35.8964C92.1076 35.501 91.8944 35.1851 91.6065 34.9524C91.3181 34.7197 90.9523 34.6025 90.5097 34.6025C90.0665 34.6025 89.7465 34.7122 89.4813 34.9316C89.2155 35.151 89.0208 35.4556 88.896 35.8472C88.7692 36.2388 88.7076 36.6947 88.7076 37.2149C88.7076 37.7352 88.7708 38.1854 88.896 38.5789C89.0208 38.9724 89.2208 39.2789 89.4918 39.4983C89.7639 39.7177 90.1208 39.8275 90.5639 39.8275L90.5655 39.8237Z" fill="white"/>
<path d="M98.976 41.4167C98.2355 41.4167 97.5886 41.2369 97.0349 40.8775C96.4812 40.5181 96.0544 40.0224 95.7502 39.3906C95.446 38.7587 95.2949 38.0323 95.2949 37.2113C95.2949 36.3902 95.4497 35.643 95.7607 35.013C96.0718 34.3831 96.5023 33.8912 97.056 33.5374C97.6097 33.1837 98.2497 33.0059 98.976 33.0059C99.7018 33.0059 100.37 33.1856 100.923 33.545C101.477 33.9045 101.906 34.4001 102.212 35.032C102.518 35.6638 102.671 36.3902 102.671 37.2113C102.671 38.0323 102.516 38.7663 102.209 39.3981C101.901 40.03 101.469 40.5237 100.917 40.8813C100.363 41.2369 99.716 41.4167 98.976 41.4167ZM98.976 39.75C99.6333 39.75 100.124 39.5135 100.443 39.0425C100.763 38.5696 100.923 37.9604 100.923 37.2131C100.923 36.4659 100.762 35.8246 100.436 35.3649C100.111 34.9052 99.6244 34.6744 98.976 34.6744C98.5328 34.6744 98.167 34.7823 97.8823 34.996C97.596 35.2098 97.3849 35.5087 97.2476 35.8889C97.1107 36.2692 97.0423 36.7118 97.0423 37.2131C97.0423 37.985 97.2054 38.6017 97.5328 39.0614C97.8597 39.5211 98.3412 39.7519 98.976 39.7519V39.75Z" fill="white"/>
<path d="M104.166 41.1947V33.2266H107.532C107.775 33.2266 108 33.2417 108.211 33.2701C108.422 33.3003 108.601 33.3363 108.752 33.3798C109.109 33.4933 109.424 33.7127 109.698 34.04C109.972 34.3673 110.11 34.8175 110.11 35.3945C110.11 35.7332 110.059 36.0131 109.958 36.2326C109.858 36.452 109.724 36.6355 109.561 36.7831C109.484 36.8512 109.403 36.9117 109.322 36.9609C109.239 37.0101 109.157 37.0498 109.076 37.0782C109.253 37.1084 109.424 37.1652 109.584 37.2484C109.835 37.3809 110.046 37.5776 110.219 37.8387C110.391 38.0997 110.475 38.4668 110.475 38.9378C110.475 39.4732 110.355 39.9253 110.115 40.2923C109.875 40.6593 109.524 40.9128 109.062 41.0566C108.893 41.1057 108.698 41.1417 108.48 41.1644C108.262 41.1871 108.037 41.1984 107.809 41.1984H104.168L104.166 41.1947ZM105.84 36.5163H107.211C107.353 36.5163 107.49 36.5087 107.625 36.4899C107.761 36.4728 107.873 36.4425 107.965 36.3972C108.116 36.3328 108.227 36.225 108.297 36.0717C108.368 35.9185 108.403 35.7502 108.403 35.5629C108.403 35.3661 108.362 35.1883 108.283 35.0275C108.202 34.8686 108.075 34.7608 107.903 34.7059C107.789 34.6568 107.65 34.6303 107.489 34.6245C107.327 34.6189 107.221 34.617 107.178 34.617H105.841V36.5125L105.84 36.5163ZM105.84 39.8212H107.691C107.788 39.8212 107.891 39.8118 108.005 39.791C108.12 39.772 108.222 39.7437 108.313 39.7096C108.478 39.6453 108.598 39.5318 108.673 39.371C108.749 39.2083 108.786 39.04 108.786 38.8621C108.786 38.6218 108.73 38.4289 108.617 38.2833C108.504 38.1376 108.371 38.0411 108.216 37.9919C108.125 37.9522 108.024 37.9295 107.918 37.9219C107.81 37.9143 107.722 37.9106 107.654 37.9106H105.838V39.8212H105.84Z" fill="white"/>
<path d="M111.837 41.1947L111.83 33.2266H113.483V35.8826H114.312C114.518 35.8826 114.75 35.8882 115.009 35.8977C115.267 35.9072 115.483 35.9299 115.657 35.9639C116.074 36.0623 116.429 36.2193 116.722 36.4369C117.017 36.6525 117.243 36.9363 117.397 37.2844C117.552 37.6344 117.631 38.0543 117.631 38.5462C117.631 39.2499 117.462 39.8118 117.123 40.2317C116.786 40.6517 116.311 40.9393 115.704 41.0906C115.527 41.1342 115.304 41.1625 115.04 41.1757C114.775 41.189 114.539 41.1947 114.333 41.1947H111.837ZM113.483 39.8005H114.476C114.576 39.8005 114.689 39.7948 114.812 39.7853C114.935 39.7758 115.051 39.7532 115.161 39.7191C115.367 39.6605 115.55 39.5261 115.71 39.3161C115.87 39.108 115.949 38.8508 115.949 38.5443C115.949 38.2378 115.868 37.9616 115.71 37.7554C115.55 37.5492 115.353 37.413 115.121 37.3506C115.012 37.3204 114.901 37.3014 114.789 37.2919C114.676 37.2825 114.573 37.2768 114.477 37.2768H113.484V39.8005H113.483ZM118.405 41.1947V33.2266H120.057V41.1947H118.405Z" fill="white"/>
<path d="M128.393 33.2274V41.1955H126.809V35.9951L123.285 41.1955H121.961V33.2274H123.545V38.2954L127.081 33.2274H128.391H128.393ZM125.398 32.3269C125.018 32.3269 124.671 32.2266 124.355 32.0242C124.04 31.8218 123.789 31.5532 123.601 31.2164C123.413 30.8797 123.32 30.5052 123.32 30.0908H124.608C124.608 30.3273 124.686 30.5279 124.839 30.6924C124.991 30.857 125.178 30.9402 125.398 30.9402C125.617 30.9402 125.804 30.857 125.957 30.6924C126.109 30.5279 126.187 30.3273 126.187 30.0908H127.476C127.476 30.5032 127.383 30.8797 127.194 31.2164C127.006 31.5532 126.755 31.8237 126.44 32.0242C126.125 32.2266 125.777 32.3269 125.398 32.3269Z" fill="white"/>
<path d="M133.041 44.7366V33.2271H134.502V38.8192H134.707V44.7366H133.041ZM136.613 41.4166C135.89 41.4166 135.286 41.2331 134.797 40.8642C134.308 40.4953 133.939 39.9921 133.693 39.3545C133.447 38.717 133.322 38.0038 133.322 37.2111C133.322 36.4185 133.445 35.6921 133.693 35.0565C133.939 34.4227 134.301 33.9214 134.779 33.5544C135.257 33.1874 135.848 33.0039 136.551 33.0039C137.254 33.0039 137.857 33.1874 138.37 33.5544C138.884 33.9214 139.283 34.4208 139.568 35.0527C139.85 35.6845 139.993 36.4034 139.993 37.2111C139.993 38.019 139.854 38.7246 139.575 39.3583C139.295 39.9921 138.903 40.4953 138.395 40.8642C137.887 41.2331 137.293 41.4166 136.613 41.4166ZM136.359 39.8237C136.788 39.8237 137.144 39.7083 137.422 39.4775C137.701 39.2467 137.907 38.9327 138.042 38.5373C138.177 38.1419 138.244 37.6993 138.244 37.2131C138.244 36.7269 138.176 36.2918 138.038 35.8964C137.902 35.501 137.688 35.1851 137.4 34.9524C137.112 34.7197 136.746 34.6025 136.304 34.6025C135.86 34.6025 135.54 34.7122 135.275 34.9316C135.009 35.151 134.815 35.4556 134.69 35.8472C134.563 36.2388 134.502 36.6947 134.502 37.2149C134.502 37.7352 134.565 38.1854 134.69 38.5789C134.815 38.9724 135.015 39.2789 135.286 39.4983C135.558 39.7177 135.915 39.8275 136.358 39.8275L136.359 39.8237Z" fill="white"/>
<path d="M144.866 41.4167C144.117 41.4167 143.458 41.2426 142.893 40.8927C142.326 40.5427 141.883 40.0584 141.565 39.4398C141.247 38.8193 141.089 38.1079 141.089 37.3002C141.089 36.4299 141.244 35.6732 141.555 35.032C141.866 34.3906 142.296 33.8912 142.85 33.5374C143.404 33.1837 144.044 33.0059 144.77 33.0059C145.538 33.0059 146.19 33.1988 146.726 33.5848C147.263 33.9706 147.662 34.5155 147.923 35.2192C148.184 35.923 148.282 36.7516 148.218 37.705H146.58V37.0561C146.575 36.1897 146.434 35.5579 146.155 35.1606C145.875 34.7614 145.438 34.5628 144.838 34.5628C144.161 34.5628 143.659 34.7879 143.33 35.2382C143.001 35.6884 142.836 36.3467 142.836 37.2113C142.836 38.0171 143.001 38.6433 143.33 39.086C143.659 39.5287 144.139 39.75 144.77 39.75C145.176 39.75 145.527 39.6535 145.823 39.4587C146.118 39.2638 146.345 38.982 146.505 38.6149L148.136 39.1465C147.853 39.8654 147.415 40.4235 146.823 40.8207C146.23 41.2199 145.578 41.4185 144.866 41.4185V41.4167ZM142.316 37.705V36.3619H147.41V37.705H142.316Z" fill="white"/>
<path d="M152.969 41.4165C152.206 41.4165 151.554 41.233 151.016 40.866C150.476 40.499 150.065 39.9996 149.779 39.364C149.492 38.7284 149.348 38.0114 149.343 37.2092C149.348 36.392 149.498 35.6693 149.791 35.0356C150.086 34.4038 150.505 33.9062 151.05 33.5449C151.593 33.1836 152.24 33.002 152.99 33.002C153.831 33.002 154.542 33.229 155.126 33.6849C155.708 34.1408 156.09 34.7613 156.267 35.5483L154.622 36.0288C154.493 35.6013 154.281 35.2683 153.983 35.0299C153.686 34.7916 153.349 34.6724 152.969 34.6724C152.54 34.6724 152.185 34.7821 151.908 35.0016C151.628 35.221 151.422 35.5218 151.291 35.9058C151.159 36.2898 151.092 36.725 151.092 37.2112C151.092 37.9679 151.25 38.5808 151.565 39.0481C151.879 39.5153 152.349 39.7499 152.969 39.7499C153.409 39.7499 153.755 39.6421 154.008 39.4245C154.261 39.2089 154.453 38.8967 154.581 38.4881L156.267 38.8929C156.039 39.7045 155.638 40.3288 155.068 40.7639C154.497 41.199 153.797 41.4165 152.971 41.4165H152.969Z" fill="white"/>
<path d="M158.345 44.736L159.77 40.5231L159.799 41.7622L156.569 33.2266H158.29L160.581 39.5413H160.141L162.369 33.2266H164.021L159.894 44.736H158.345Z" fill="white"/>
<path d="M165.028 44.7366V33.2271H166.489V38.8192H166.695V44.7366H165.028ZM168.6 41.4166C167.878 41.4166 167.273 41.2331 166.785 40.8642C166.296 40.4953 165.927 39.9921 165.68 39.3545C165.435 38.717 165.309 38.0038 165.309 37.2111C165.309 36.4185 165.433 35.6921 165.68 35.0565C165.927 34.4227 166.289 33.9214 166.767 33.5544C167.245 33.1874 167.836 33.0039 168.539 33.0039C169.242 33.0039 169.845 33.1874 170.358 33.5544C170.871 33.9214 171.27 34.4208 171.555 35.0527C171.838 35.6845 171.98 36.4034 171.98 37.2111C171.98 38.019 171.841 38.7246 171.562 39.3583C171.283 39.9921 170.891 40.4953 170.383 40.8642C169.875 41.2331 169.28 41.4166 168.6 41.4166ZM168.347 39.8237C168.776 39.8237 169.131 39.7083 169.409 39.4775C169.688 39.2467 169.894 38.9327 170.029 38.5373C170.165 38.1419 170.231 37.6993 170.231 37.2131C170.231 36.7269 170.163 36.2918 170.026 35.8964C169.889 35.501 169.676 35.1851 169.388 34.9524C169.099 34.7197 168.734 34.6025 168.291 34.6025C167.848 34.6025 167.528 34.7122 167.263 34.9316C166.997 35.151 166.802 35.4556 166.677 35.8472C166.55 36.2388 166.489 36.6947 166.489 37.2149C166.489 37.7352 166.553 38.1854 166.677 38.5789C166.802 38.9724 167.003 39.2789 167.273 39.4983C167.546 39.7177 167.903 39.8275 168.345 39.8275L168.347 39.8237Z" fill="white"/>
<path d="M176.702 41.4165C175.94 41.4165 175.288 41.233 174.75 40.866C174.21 40.499 173.799 39.9996 173.512 39.364C173.226 38.7284 173.081 38.0114 173.076 37.2092C173.081 36.392 173.231 35.6693 173.525 35.0356C173.82 34.4038 174.238 33.9062 174.783 33.5449C175.326 33.1836 175.973 33.002 176.724 33.002C177.564 33.002 178.276 33.229 178.859 33.6849C179.441 34.1408 179.823 34.7613 180 35.5483L178.355 36.0288C178.227 35.6013 178.014 35.2683 177.717 35.0299C177.42 34.7916 177.082 34.6724 176.702 34.6724C176.274 34.6724 175.919 34.7821 175.641 35.0016C175.361 35.221 175.156 35.5218 175.024 35.9058C174.892 36.2898 174.825 36.725 174.825 37.2112C174.825 37.9679 174.984 38.5808 175.298 39.0481C175.613 39.5153 176.082 39.7499 176.702 39.7499C177.142 39.7499 177.488 39.6421 177.741 39.4245C177.995 39.2089 178.186 38.8967 178.315 38.4881L180 38.8929C179.772 39.7045 179.371 40.3288 178.801 40.7639C178.23 41.199 177.53 41.4165 176.705 41.4165H176.702Z" fill="white"/>
</svg>
