<svg width="49" height="50" viewBox="0 0 49 50" fill="none" xmlns="http://www.w3.org/2000/svg">
<path d="M26.2362 19.4997C26.2362 20.5736 25.3816 21.443 24.3281 21.443C23.2745 21.443 22.4199 20.5719 22.4199 19.4997C22.4199 18.4275 23.2745 17.5547 24.3281 17.5547C25.3816 17.5547 26.2362 18.4258 26.2362 19.4997Z" fill="#321149"/>
<path d="M20.5626 19.0148C20.8956 18.1954 20.5139 17.256 19.71 16.9166C18.9061 16.5772 17.9846 16.9663 17.6516 17.7857C17.3186 18.6051 17.7004 19.5445 18.5042 19.8838C19.3081 20.2232 20.2296 19.8341 20.5626 19.0148Z" fill="#321149"/>
<path d="M31.1591 18.6583C31.2985 17.7829 30.7153 16.958 29.8564 16.8159C28.9976 16.6738 28.1883 17.2683 28.0489 18.1437C27.9095 19.0192 28.4927 19.844 29.3516 19.9862C30.2104 20.1282 31.0197 19.5337 31.1591 18.6583Z" fill="#321149"/>
<path d="M27.4102 24.6667L27.3711 28.5334L26.9079 29.3713L26.5328 32.819H22.0462L21.7005 29.3713L21.2471 28.5384L21.2569 24.6667H21.7119L21.7086 21.7842H26.9177V24.6667H27.4102Z" fill="#321149"/>
<path d="M21.4784 20.7983L20.7103 22.2878V24.4572H20.1183V29.6239H20.6303V32.8189H19.3093L16.9837 30.8889V26.5901L16.0361 25.6525V22.2862H16.6673L16.6722 20.7983L17.0326 20.2414H18.1514L18.5803 20.7983H19.6437L20.0579 20.2365L21.0299 20.2314L21.4784 20.7983Z" fill="#321149"/>
<path d="M32.6845 22.2862V25.6525L31.7321 26.5901V30.8889L29.3934 32.8189H28.0643V29.6239H28.5796V24.4572H27.9859V22.2878L27.2129 20.7983L27.663 20.2314L28.6399 20.2365L29.0558 20.7983H30.1273L30.5628 20.2348H31.6881L32.0452 20.7983L32.0501 22.2862H32.6845Z" fill="#321149"/>
<path d="M10.2662 20.002C9.96452 20.9179 9.74761 21.8738 9.62207 22.8579H12.0912C12.1842 22.2511 12.3196 21.6577 12.494 21.0825L10.2662 20.0036V20.002Z" fill="#EFC100"/>
<path d="M17.6801 11.2773C16.6771 11.7927 15.741 12.4211 14.8848 13.1475L16.6217 14.918C17.2691 14.3893 17.9687 13.9255 18.7141 13.5382L17.6817 11.279L17.6801 11.2773Z" fill="#1FCC71"/>
<path d="M25.6182 9.71289V12.2148C26.3602 12.2912 27.0827 12.4342 27.7807 12.6386L28.7658 10.3379C27.7579 10.0188 26.7043 9.80598 25.6182 9.71289Z" fill="#EFC100"/>
<path d="M35.6477 14.9645L33.9141 16.7317C34.3658 17.2852 34.7719 17.8787 35.1258 18.5054L37.4612 17.6593C36.9524 16.6934 36.3424 15.7891 35.6477 14.9629V14.9645Z" fill="#1FCC71"/>
<path d="M36.7616 25.4043C36.455 32.1053 31.0095 37.4615 24.3603 37.4615C17.7112 37.4615 12.2657 32.1053 11.959 25.4043H9.5127C9.82257 33.4801 16.364 39.9534 24.3603 39.9534C32.3566 39.9534 38.8997 33.4801 39.208 25.4043H36.7616Z" fill="#321149"/>
<path d="M39.0994 22.8575C38.9754 21.8751 38.7569 20.9192 38.4568 20.0049L36.1523 20.8394C36.3644 21.4911 36.5242 22.1643 36.6302 22.8575H39.0994Z" fill="#2A99F4"/>
<path d="M31.0811 11.2995L30.1025 13.5869C30.8234 13.9726 31.5035 14.4281 32.133 14.9451L33.8699 13.1747C33.017 12.4482 32.0808 11.8165 31.0827 11.2979L31.0811 11.2995Z" fill="#ED410C"/>
<path d="M20.001 10.3246L21.0448 12.6104C21.7151 12.4209 22.4066 12.2879 23.1176 12.2148V9.71289C22.0429 9.80429 20.9991 10.0121 20.001 10.3246Z" fill="#2A99F4"/>
<path d="M13.1011 14.9313C12.3933 15.7675 11.7751 16.6818 11.2598 17.661L13.4696 18.7315C13.8594 18.0067 14.3177 17.3269 14.8347 16.6968L13.1011 14.9297V14.9313Z" fill="#ED410C"/>
<path d="M5.95597 17.9121C5.38681 19.4931 5.01496 21.1521 4.85352 22.856H7.31292C7.45966 21.5162 7.75489 20.2228 8.18215 18.991L5.95597 17.9121Z" fill="#EFC100"/>
<path d="M15.6741 6.88867C14.1883 7.63841 12.7922 8.5843 11.5186 9.71473L13.2587 11.4885C14.309 10.5775 15.4669 9.79287 16.7129 9.15786L15.6757 6.88867H15.6741Z" fill="#1FCC71"/>
<path d="M25.6182 4.87109V7.36967C27.0289 7.47437 28.3907 7.75199 29.6856 8.18588L30.6706 5.88513C29.0528 5.32493 27.3583 4.98248 25.6182 4.87276V4.87109Z" fill="#EFC100"/>
<path d="M39.0113 11.5368L37.2744 13.3073C38.2008 14.3861 38.9983 15.5814 39.6441 16.8681L41.9746 16.0236C41.2 14.4127 40.2068 12.9033 39.0113 11.5352V11.5368Z" fill="#1FCC71"/>
<path d="M41.5028 25.4043C41.1929 34.7701 33.6223 42.2907 24.3588 42.2907C15.0954 42.2907 7.5264 34.7701 7.21491 25.4043H4.76855C4.91534 30.5161 6.93766 35.3004 10.4995 38.931C14.2016 42.7047 19.122 44.7826 24.3572 44.7826C29.5923 44.7826 34.5144 42.7047 38.2148 38.931C41.9154 35.1574 43.799 30.5161 43.9458 25.4043H41.4995H41.5028Z" fill="#321149"/>
<path d="M43.8676 22.8573C43.7224 21.3212 43.406 19.8218 42.9282 18.3838L40.6172 19.2217C41.0021 20.3836 41.2712 21.6021 41.4082 22.8589H43.8676V22.8573Z" fill="#2A99F4"/>
<path d="M32.9815 6.85547L31.998 9.15285C33.2588 9.79451 34.433 10.5908 35.4947 11.5184L37.2349 9.74467C35.9334 8.58431 34.5048 7.61683 32.9815 6.85547Z" fill="#ED410C"/>
<path d="M17.9821 5.90619L19.0242 8.18694C20.3273 7.7514 21.6989 7.47046 23.1178 7.36576V4.86719C21.3483 4.97857 19.6244 5.32931 17.9805 5.9045L17.9821 5.90619Z" fill="#2A99F4"/>
<path d="M9.74027 11.5049C8.64105 12.7549 7.71307 14.1231 6.96777 15.581L9.18741 16.6566C9.8202 15.4364 10.59 14.3026 11.4772 13.2753L9.74027 11.5049Z" fill="#ED410C"/>
<path d="M25.6182 0V2.49689C27.7024 2.61658 29.7101 3.0355 31.6003 3.71209L32.5821 1.41801C30.3428 0.598453 28.0107 0.124678 25.6182 0Z" fill="#EFC100"/>
<path d="M42.388 8.09375L40.6494 9.86584C42.0601 11.4634 43.2507 13.2671 44.1656 15.2303L46.488 14.3892C45.4426 12.0851 44.0678 9.97391 42.388 8.09375Z" fill="#1FCC71"/>
<path d="M46.2765 25.4043C45.965 37.4516 36.2531 47.1532 24.3606 47.1532C12.4682 47.1532 2.75784 37.4516 2.4447 25.4043H0C0.0717592 28.5462 0.71433 31.5933 1.90814 34.4742C3.13457 37.4316 4.89105 40.0881 7.1286 42.3689C9.36621 44.6496 11.9724 46.44 14.8737 47.6918C17.8794 48.9868 21.0711 49.6451 24.359 49.6451C27.6469 49.6451 30.8385 48.9884 33.8443 47.6918C36.7456 46.44 39.3518 44.6496 41.5893 42.3689C43.827 40.0881 45.5834 37.4316 46.8115 34.4742C48.0053 31.5933 48.6479 28.5462 48.7196 25.4043H46.2749H46.2765Z" fill="#321149"/>
<path d="M15.9619 1.4845L17.0008 3.75697C18.9301 3.05212 20.9851 2.61824 23.1199 2.49689V0C20.6589 0.124678 18.2598 0.621727 15.9619 1.4845Z" fill="#2A99F4"/>
<path d="M6.36229 8.0625C4.88956 9.70491 3.65011 11.5236 2.66016 13.4951L4.87654 14.5691C5.74908 12.8485 6.83687 11.2576 8.09919 9.83459L6.36063 8.0625H6.36229Z" fill="#ED410C"/>
</svg>
