<svg width="180" height="49" viewBox="0 0 180 49" fill="none" xmlns="http://www.w3.org/2000/svg">
<mask id="mask0_1_6449" style="mask-type:luminance" maskUnits="userSpaceOnUse" x="0" y="0" width="180" height="49">
<path d="M180 0H0V48.1667H180V0Z" fill="white"/>
</mask>
<g mask="url(#mask0_1_6449)">
<path d="M28.2784 18.9193C28.2784 19.9612 27.3573 20.8047 26.2217 20.8047C25.0861 20.8047 24.165 19.9596 24.165 18.9193C24.165 17.879 25.0861 17.0322 26.2217 17.0322C27.3573 17.0322 28.2784 17.8774 28.2784 18.9193Z" fill="#321149"/>
<path d="M22.1638 18.4486C22.5227 17.6536 22.1113 16.7423 21.2448 16.4129C20.3784 16.0837 19.3851 16.4612 19.0262 17.2561C18.6673 18.0511 19.0788 18.9626 19.9452 19.2918C20.8116 19.6211 21.8049 19.2436 22.1638 18.4486Z" fill="#321149"/>
<path d="M33.5854 18.1028C33.7357 17.2535 33.1071 16.4531 32.1813 16.3153C31.2557 16.1774 30.3834 16.7542 30.2331 17.6035C30.0829 18.4529 30.7115 19.2532 31.6372 19.3911C32.5629 19.529 33.4352 18.9522 33.5854 18.1028Z" fill="#321149"/>
<path d="M29.5443 23.9315L29.5021 27.683L29.0029 28.4959L28.5986 31.841H23.7627L23.3901 28.4959L22.9014 27.6878L22.9119 23.9315H23.4024L23.3988 21.1348H29.0134V23.9315H29.5443Z" fill="#321149"/>
<path d="M23.1511 20.1789L22.3232 21.624V23.7288H21.6851V28.7416H22.237V31.8415H20.8132L18.3065 29.969V25.7982L17.2852 24.8885V21.6224H17.9655L17.9707 20.1789L18.3592 19.6386H19.5651L20.0274 20.1789H21.1735L21.62 19.6338L22.6677 19.6289L23.1511 20.1789Z" fill="#321149"/>
<path d="M35.2286 21.6224V24.8885L34.2021 25.7982V29.969L31.6813 31.8415H30.2487V28.7416H30.8042V23.7288H30.1643V21.624L29.3311 20.1789L29.8162 19.6289L30.8692 19.6338L31.3174 20.1789H32.4723L32.9417 19.6321H34.1546L34.5396 20.1789L34.5448 21.6224H35.2286Z" fill="#321149"/>
<path d="M11.0654 19.4062C10.7402 20.2949 10.5064 21.2223 10.3711 22.1772H13.0325C13.1327 21.5884 13.2786 21.0127 13.4666 20.4546L11.0654 19.4079V19.4062Z" fill="#EFC100"/>
<path d="M19.0569 10.9414C17.9758 11.4414 16.9668 12.0511 16.0439 12.7559L17.9161 14.4736C18.6139 13.9607 19.368 13.5107 20.1714 13.1349L19.0586 10.943L19.0569 10.9414Z" fill="#1FCC71"/>
<path d="M27.6123 9.42383V11.8512C28.4121 11.9254 29.1908 12.0641 29.9432 12.2624L31.0049 10.0302C29.9186 9.72058 28.783 9.51414 27.6123 9.42383Z" fill="#EFC100"/>
<path d="M38.4233 14.5192L36.5547 16.2337C37.0416 16.7707 37.4793 17.3466 37.8608 17.9546L40.378 17.1337C39.8296 16.1966 39.1721 15.3192 38.4233 14.5176V14.5192Z" fill="#1FCC71"/>
<path d="M39.624 24.6475C39.2935 31.1489 33.4241 36.3456 26.2573 36.3456C19.0906 36.3456 13.2212 31.1489 12.8907 24.6475H10.2539C10.5879 32.4828 17.6386 38.7633 26.2573 38.7633C34.8761 38.7633 41.9285 32.4828 42.2608 24.6475H39.624Z" fill="#321149"/>
<path d="M42.1422 22.1769C42.0087 21.2237 41.7731 20.2963 41.4497 19.4092L38.9658 20.2189C39.1943 20.8511 39.3666 21.5043 39.4809 22.1769H42.1422Z" fill="#2A99F4"/>
<path d="M33.501 10.9625L32.4463 13.1819C33.2233 13.5561 33.9563 13.9979 34.6348 14.4996L36.5069 12.7819C35.5876 12.0771 34.5786 11.4641 33.5028 10.9609L33.501 10.9625Z" fill="#ED410C"/>
<path d="M21.5586 10.0173L22.6836 12.235C23.4061 12.0512 24.1514 11.9221 24.9179 11.8512V9.42383C23.7594 9.5125 22.6344 9.71413 21.5586 10.0173Z" fill="#2A99F4"/>
<path d="M14.1204 14.4869C13.3575 15.2982 12.6912 16.1853 12.1357 17.1353L14.5176 18.174C14.9377 17.4708 15.4317 16.8111 15.989 16.1998L14.1204 14.4854V14.4869Z" fill="#ED410C"/>
<path d="M6.41972 17.3789C5.80625 18.9128 5.40546 20.5224 5.23145 22.1756H7.8823C8.04046 20.8756 8.35867 19.6208 8.8192 18.4257L6.41972 17.3789Z" fill="#EFC100"/>
<path d="M16.895 6.68359C15.2936 7.41101 13.7889 8.32873 12.416 9.42548L14.2916 11.1464C15.4237 10.2626 16.6718 9.5013 18.0148 8.8852L16.8968 6.68359H16.895Z" fill="#1FCC71"/>
<path d="M27.6123 4.72559V7.14975C29.1328 7.25133 30.6006 7.52068 31.9964 7.94166L33.0581 5.70942C31.3143 5.16591 29.4879 4.83365 27.6123 4.7272V4.72559Z" fill="#EFC100"/>
<path d="M42.0479 11.193L40.1758 12.9108C41.1743 13.9575 42.0338 15.1171 42.7299 16.3655L45.2419 15.5462C44.4069 13.9833 43.3364 12.5188 42.0479 11.1914V11.193Z" fill="#1FCC71"/>
<path d="M44.7334 24.6475C44.3994 33.7344 36.2395 41.031 26.2549 41.031C16.2703 41.031 8.11218 33.7344 7.77644 24.6475H5.13965C5.29786 29.607 7.4776 34.2489 11.3167 37.7714C15.307 41.4326 20.6104 43.4487 26.2531 43.4487C31.8958 43.4487 37.201 41.4326 41.1895 37.7714C45.1781 34.1102 47.2084 29.607 47.3667 24.6475H44.7299H44.7334Z" fill="#321149"/>
<path d="M47.2827 22.1772C47.1262 20.6868 46.7852 19.2321 46.2702 17.8369L43.7793 18.6498C44.1942 19.7772 44.4842 20.9594 44.6319 22.1788H47.2827V22.1772Z" fill="#2A99F4"/>
<path d="M35.5493 6.65137L34.4893 8.88033C35.8481 9.50289 37.1137 10.2755 38.2581 11.1754L40.1337 9.45453C38.7309 8.32872 37.1911 7.39005 35.5493 6.65137Z" fill="#ED410C"/>
<path d="M19.3816 5.73071L20.5049 7.94354C21.9094 7.52097 23.3878 7.2484 24.9171 7.14682V4.72266C23.0098 4.83072 21.1518 5.17102 19.3799 5.72908L19.3816 5.73071Z" fill="#2A99F4"/>
<path d="M10.4981 11.1631C9.31329 12.3759 8.31308 13.7033 7.50977 15.1178L9.90219 16.1613C10.5842 14.9775 11.4139 13.8775 12.3702 12.8808L10.4981 11.1631Z" fill="#ED410C"/>
<path d="M27.6123 0V2.42253C29.8588 2.53866 32.0227 2.9451 34.0601 3.60154L35.1183 1.37578C32.7048 0.580631 30.191 0.120965 27.6123 0Z" fill="#EFC100"/>
<path d="M45.6883 7.85352L43.8145 9.57283C45.335 11.1228 46.6182 12.8728 47.6044 14.7776L50.1076 13.9614C48.9808 11.726 47.4989 9.67769 45.6883 7.85352Z" fill="#1FCC71"/>
<path d="M49.8789 24.6475C49.5432 36.3359 39.0752 45.7486 26.2569 45.7486C13.4387 45.7486 2.97252 36.3359 2.63501 24.6475H0C0.0773453 27.6958 0.769937 30.6522 2.05668 33.4473C3.37858 36.3166 5.27179 38.8939 7.68353 41.1068C10.0953 43.3196 12.9044 45.0567 16.0316 46.2712C19.2713 47.5276 22.7114 48.1663 26.2552 48.1663C29.799 48.1663 33.2391 47.5292 36.4788 46.2712C39.6061 45.0567 42.4151 43.3196 44.8268 41.1068C47.2386 38.8939 49.1318 36.3166 50.4555 33.4473C51.7422 30.6522 52.4348 27.6958 52.5122 24.6475H49.8772H49.8789Z" fill="#321149"/>
<path d="M17.2041 1.44029L18.3238 3.64508C20.4034 2.96123 22.6183 2.54027 24.9193 2.42253V0C22.2667 0.120965 19.6809 0.603211 17.2041 1.44029Z" fill="#2A99F4"/>
<path d="M6.85751 7.82227C5.27014 9.41577 3.9342 11.1803 2.86719 13.0931L5.2561 14.135C6.19656 12.4657 7.36904 10.9222 8.72961 9.54158L6.85572 7.82227H6.85751Z" fill="#ED410C"/>
<path d="M63.2998 20.0266V10.9688H64.7872L68.2009 17.3848L71.6145 10.9688H73.1014V20.0266H71.5598V14.2203L68.5293 20.0266H67.8719L64.8488 14.2203V20.0266H63.2998Z" fill="#321149"/>
<path d="M81.4399 13.2334V20.0268H79.8557V15.593L76.3315 20.0268H75.0078V13.2334H76.5915V17.5543L80.1283 13.2334H81.4378H81.4399Z" fill="#321149"/>
<path d="M83.3594 20.0268V13.2334H88.6383V14.6544H85.0115V20.0268H83.3594Z" fill="#321149"/>
<path d="M89.9268 23.046V13.2333H91.3873V18.001H91.5931V23.046H89.9268ZM93.4983 20.2154C92.7762 20.2154 92.1715 20.059 91.6825 19.7445C91.1941 19.4299 90.8247 19.0009 90.5789 18.4574C90.3325 17.9138 90.2078 17.3058 90.2078 16.63C90.2078 15.9542 90.331 15.3349 90.5789 14.793C90.8247 14.2526 91.1868 13.8252 91.6652 13.5123C92.1431 13.1994 92.7341 13.043 93.4373 13.043C94.1399 13.043 94.7431 13.1994 95.2562 13.5123C95.7699 13.8252 96.1689 14.251 96.4536 14.7897C96.7368 15.3284 96.8789 15.9413 96.8789 16.63C96.8789 17.3187 96.7399 17.9203 96.4604 18.4606C96.181 19.0009 95.7889 19.4299 95.281 19.7445C94.7731 20.059 94.1789 20.2154 93.4983 20.2154ZM93.2452 18.8574C93.6741 18.8574 94.0294 18.759 94.3073 18.5622C94.5868 18.3654 94.7925 18.0977 94.9278 17.7606C95.0631 17.4235 95.1299 17.0461 95.1299 16.6316C95.1299 16.2171 95.0615 15.8461 94.9241 15.5091C94.7873 15.172 94.5741 14.9026 94.2862 14.7042C93.9978 14.5058 93.632 14.4058 93.1894 14.4058C92.7462 14.4058 92.4262 14.4994 92.161 14.6865C91.8952 14.8736 91.7004 15.1333 91.5757 15.4671C91.4489 15.801 91.3873 16.1897 91.3873 16.6332C91.3873 17.0768 91.4504 17.4606 91.5757 17.7961C91.7004 18.1316 91.9004 18.3928 92.1715 18.58C92.4436 18.7671 92.8004 18.8606 93.2436 18.8606L93.2452 18.8574Z" fill="#321149"/>
<path d="M100.458 20.2154C99.9235 20.2154 99.4698 20.1218 99.1008 19.9348C98.7314 19.7477 98.4503 19.4993 98.2603 19.1896C98.0708 18.88 97.9756 18.538 97.9756 18.1639C97.9756 17.8364 98.0356 17.5429 98.1535 17.28C98.273 17.0187 98.4556 16.7913 98.7019 16.601C98.9477 16.4106 99.2677 16.2542 99.6614 16.1316C99.9587 16.0429 100.307 15.9639 100.707 15.8929C101.107 15.8219 101.541 15.7558 102.01 15.6945C102.478 15.6332 102.968 15.5671 103.481 15.4961L102.892 15.8042C102.898 15.3349 102.783 14.9881 102.55 14.7671C102.316 14.5446 101.924 14.4333 101.37 14.4333C101.036 14.4333 100.715 14.5043 100.403 14.6478C100.092 14.7897 99.8761 15.0365 99.7508 15.3832L98.243 14.9494C98.4256 14.3752 98.7735 13.9139 99.2887 13.5655C99.8019 13.2172 100.497 13.043 101.37 13.043C102.028 13.043 102.608 13.1414 103.109 13.3381C103.61 13.5349 103.98 13.8575 104.223 14.3075C104.355 14.5462 104.436 14.7913 104.462 15.0397C104.49 15.2897 104.502 15.5607 104.502 15.8542V20.0251H103.056V18.5525L103.295 18.7912C102.961 19.2816 102.572 19.6412 102.126 19.8703C101.681 20.0993 101.124 20.2122 100.456 20.2122L100.458 20.2154ZM100.787 19.0074C101.161 19.0074 101.481 18.9461 101.746 18.8251C102.012 18.7042 102.222 18.5542 102.381 18.3783C102.539 18.2025 102.645 18.0364 102.699 17.8816C102.785 17.688 102.835 17.4671 102.847 17.2187C102.857 16.9687 102.864 16.7671 102.864 16.6123L103.372 16.751C102.875 16.8219 102.446 16.8848 102.091 16.9397C101.736 16.9945 101.428 17.0461 101.171 17.0945C100.915 17.1429 100.69 17.1961 100.493 17.2558C100.301 17.3187 100.138 17.3913 100.006 17.4751C99.874 17.559 99.7724 17.6558 99.7003 17.7638C99.6298 17.8735 99.5945 18.0009 99.5945 18.1477C99.5945 18.3154 99.6403 18.4638 99.7319 18.5912C99.823 18.7186 99.9566 18.8203 100.132 18.8961C100.308 18.9719 100.526 19.009 100.787 19.009V19.0074Z" fill="#321149"/>
<path d="M112.481 21.4542V20.0268H106.271V13.2334H107.923V18.6059H111.048V13.2334H112.701V18.6801H114.134V21.4542H112.481Z" fill="#321149"/>
<path d="M121.646 13.2334V20.0268H120.063V15.593L116.539 20.0268H115.215V13.2334H116.799V17.5543L120.335 13.2334H121.645H121.646Z" fill="#321149"/>
<path d="M126.835 20.2157C126.095 20.2157 125.449 20.0625 124.895 19.756C124.341 19.4496 123.914 19.027 123.61 18.4883C123.305 17.9496 123.154 17.3303 123.154 16.6303C123.154 15.9303 123.309 15.2932 123.62 14.7561C123.931 14.2191 124.362 13.7997 124.916 13.4981C125.47 13.1965 126.109 13.0449 126.835 13.0449C127.561 13.0449 128.229 13.1981 128.783 13.5046C129.336 13.811 129.765 14.2336 130.072 14.7723C130.377 15.311 130.53 15.9303 130.53 16.6303C130.53 17.3303 130.375 17.9561 130.068 18.4948C129.76 19.0335 129.328 19.4545 128.776 19.7593C128.222 20.0625 127.575 20.2157 126.835 20.2157ZM126.835 18.7948C127.493 18.7948 127.983 18.5932 128.303 18.1916C128.623 17.7883 128.783 17.269 128.783 16.6319C128.783 15.9948 128.621 15.4481 128.296 15.0562C127.971 14.6642 127.484 14.4675 126.835 14.4675C126.392 14.4675 126.026 14.5594 125.742 14.7416C125.455 14.9239 125.244 15.1788 125.107 15.5029C124.97 15.8271 124.902 16.2045 124.902 16.6319C124.902 17.29 125.065 17.8158 125.392 18.2077C125.719 18.5997 126.201 18.7964 126.835 18.7964V18.7948Z" fill="#321149"/>
<path d="M132.026 20.0268V13.2334H133.678V15.9124H137.003V13.2334H138.655V20.0268H137.003V17.3349H133.678V20.0268H132.026Z" fill="#321149"/>
<path d="M140.562 20.0268V13.2334H142.214V15.9124H145.538V13.2334H147.19V20.0268H145.538V17.3349H142.214V20.0268H140.562Z" fill="#321149"/>
<path d="M149.103 20.0268L149.096 13.2334H150.748V15.4979H151.578C151.784 15.4979 152.016 15.5027 152.274 15.5108C152.533 15.5189 152.748 15.5382 152.923 15.5672C153.339 15.6511 153.694 15.785 153.988 15.9705C154.283 16.1543 154.508 16.3963 154.663 16.693C154.817 16.9914 154.897 17.3495 154.897 17.7688C154.897 18.3688 154.728 18.8478 154.389 19.2059C154.051 19.564 153.577 19.8091 152.97 19.9381C152.793 19.9752 152.569 19.9994 152.306 20.0107C152.04 20.022 151.805 20.0268 151.599 20.0268H149.103ZM150.748 18.8381H151.741C151.841 18.8381 151.954 18.8333 152.077 18.8252C152.2 18.8172 152.316 18.7978 152.427 18.7688C152.633 18.7188 152.815 18.6043 152.975 18.4252C153.135 18.2478 153.214 18.0285 153.214 17.7672C153.214 17.5059 153.134 17.2704 152.975 17.0946C152.815 16.9188 152.618 16.8027 152.386 16.7495C152.277 16.7237 152.167 16.7075 152.054 16.6995C151.941 16.6914 151.838 16.6866 151.743 16.6866H150.75V18.8381H150.748ZM155.67 20.0268V13.2334H157.323V20.0268H155.67Z" fill="#321149"/>
<path d="M165.66 13.2337V20.0271H164.076V15.5933L160.551 20.0271H159.228V13.2337H160.812V17.5546L164.348 13.2337H165.658H165.66ZM162.664 12.466C162.284 12.466 161.938 12.3805 161.622 12.2079C161.307 12.0354 161.056 11.8063 160.868 11.5192C160.68 11.2321 160.586 10.9128 160.586 10.5596H161.875C161.875 10.7612 161.952 10.9321 162.105 11.0724C162.258 11.2128 162.444 11.2838 162.664 11.2838C162.884 11.2838 163.07 11.2128 163.223 11.0724C163.376 10.9321 163.453 10.7612 163.453 10.5596H164.742C164.742 10.9112 164.649 11.2321 164.461 11.5192C164.273 11.8063 164.021 12.037 163.706 12.2079C163.392 12.3805 163.044 12.466 162.664 12.466Z" fill="#321149"/>
<path d="M63.2861 35.1215L63.3003 28.3281H64.974V31.599L67.6809 28.3281H69.7446L66.8724 31.7248L69.9909 35.1215H67.804L64.9719 31.8506V35.1215H63.2861Z" fill="#321149"/>
<path d="M72.7467 35.3101C72.212 35.3101 71.7589 35.2166 71.3894 35.0295C71.0204 34.8424 70.7394 34.594 70.5494 34.2843C70.3594 33.9746 70.2646 33.6327 70.2646 33.2585C70.2646 32.9311 70.3241 32.6376 70.442 32.3747C70.5615 32.1134 70.7446 31.886 70.9904 31.6957C71.2368 31.5054 71.5567 31.3489 71.9504 31.2263C72.2473 31.1376 72.5957 31.0586 72.9962 30.9876C73.3952 30.9166 73.8294 30.8505 74.2989 30.7892C74.7662 30.728 75.2567 30.6618 75.7699 30.5908L75.1815 30.8989C75.1868 30.4296 75.0725 30.0828 74.8383 29.8618C74.6046 29.6392 74.2125 29.528 73.6589 29.528C73.3252 29.528 73.0031 29.5989 72.692 29.7425C72.381 29.8844 72.1646 30.1312 72.0399 30.4779L70.532 30.0441C70.7146 29.4699 71.0625 29.0086 71.5778 28.6603C72.091 28.3119 72.7852 28.1377 73.6589 28.1377C74.3162 28.1377 74.8968 28.2361 75.3973 28.4328C75.8983 28.6296 76.2694 28.9522 76.512 29.4022C76.6436 29.6409 76.7246 29.886 76.751 30.1344C76.7794 30.3844 76.7915 30.6554 76.7915 30.9489V35.1198H75.3446V33.6472L75.5836 33.886C75.2499 34.3763 74.8615 34.7359 74.4146 34.9649C73.9699 35.194 73.4131 35.3069 72.7446 35.3069L72.7467 35.3101ZM73.0752 34.1021C73.4499 34.1021 73.7699 34.0408 74.0352 33.9198C74.3004 33.7988 74.5115 33.6488 74.6699 33.473C74.8278 33.2972 74.9336 33.1311 74.9878 32.9763C75.0741 32.7827 75.1231 32.5618 75.1357 32.3134C75.1462 32.0634 75.1531 31.8618 75.1531 31.7069L75.661 31.8457C75.1636 31.9166 74.7346 31.9795 74.3799 32.0344C74.0246 32.0892 73.7167 32.1408 73.4604 32.1892C73.2036 32.2376 72.9789 32.2908 72.782 32.3505C72.5904 32.4134 72.4268 32.4859 72.2946 32.5699C72.1631 32.6537 72.061 32.7505 71.9889 32.8586C71.9189 32.9682 71.8836 33.0956 71.8836 33.2424C71.8836 33.4101 71.9294 33.5585 72.0204 33.6859C72.112 33.8134 72.2457 33.915 72.4215 33.9908C72.5973 34.0666 72.8152 34.1037 73.0752 34.1037V34.1021Z" fill="#321149"/>
<path d="M78.0254 36.6315V33.9332C78.4275 33.9332 78.7122 33.8074 78.8828 33.5558C79.0517 33.3042 79.187 32.8687 79.2875 32.2478C79.3507 31.8784 79.4033 31.4881 79.4454 31.0784C79.4859 30.6671 79.5228 30.2333 79.5512 29.7768C79.5791 29.3204 79.607 28.8381 79.6301 28.3301H85.1428V33.9348H85.8896V36.6332H84.327V35.1235H79.5828V36.6332H78.027L78.0254 36.6315ZM80.2401 33.9332H83.4954V29.5171H81.0749C81.0612 29.7688 81.0454 30.0252 81.0275 30.2881C81.0101 30.5494 80.9891 30.8107 80.9659 31.072C80.9433 31.3316 80.9186 31.58 80.8938 31.8171C80.8696 32.0542 80.8396 32.2735 80.808 32.4752C80.757 32.8268 80.6954 33.1171 80.6233 33.3429C80.5496 33.5687 80.4228 33.7671 80.2401 33.9348V33.9332Z" fill="#321149"/>
<path d="M87.2471 38.1407V28.328H88.7076V33.0956H88.9134V38.1407H87.2471ZM90.8186 35.3101C90.0965 35.3101 89.4918 35.1537 89.0029 34.8391C88.5144 34.5246 88.145 34.0956 87.8992 33.5521C87.6529 33.0086 87.5281 32.4005 87.5281 31.7247C87.5281 31.0489 87.6513 30.4296 87.8992 29.8876C88.145 29.3473 88.5071 28.9199 88.9855 28.607C89.4634 28.2941 90.0544 28.1377 90.7576 28.1377C91.4602 28.1377 92.0634 28.2941 92.5765 28.607C93.0902 28.9199 93.4892 29.3457 93.7739 29.8844C94.0571 30.4231 94.1992 31.036 94.1992 31.7247C94.1992 32.4134 94.0602 33.015 93.7808 33.5553C93.5013 34.0956 93.1092 34.5246 92.6013 34.8391C92.0934 35.1537 91.4992 35.3101 90.8186 35.3101ZM90.5655 33.952C90.9944 33.952 91.3497 33.8537 91.6276 33.6569C91.9071 33.4601 92.1129 33.1924 92.2481 32.8553C92.3834 32.5182 92.4502 32.1408 92.4502 31.7263C92.4502 31.3118 92.3818 30.9409 92.2444 30.6037C92.1076 30.2667 91.8944 29.9973 91.6065 29.7989C91.3181 29.6006 90.9523 29.5006 90.5097 29.5006C90.0665 29.5006 89.7465 29.5941 89.4813 29.7812C89.2155 29.9683 89.0208 30.2279 88.896 30.5618C88.7692 30.8957 88.7076 31.2844 88.7076 31.7279C88.7076 32.1715 88.7708 32.5553 88.896 32.8908C89.0208 33.2263 89.2208 33.4876 89.4918 33.6747C89.7639 33.8617 90.1208 33.9553 90.5639 33.9553L90.5655 33.952Z" fill="#321149"/>
<path d="M98.976 35.3105C98.2355 35.3105 97.5886 35.1572 97.0349 34.8508C96.4812 34.5444 96.0544 34.1218 95.7502 33.5831C95.446 33.0444 95.2949 32.425 95.2949 31.7251C95.2949 31.0251 95.4497 30.388 95.7607 29.8509C96.0718 29.3138 96.5023 28.8945 97.056 28.5928C97.6097 28.2913 98.2497 28.1396 98.976 28.1396C99.7018 28.1396 100.37 28.2929 100.923 28.5993C101.477 28.9058 101.906 29.3284 102.212 29.8671C102.518 30.4057 102.671 31.0251 102.671 31.7251C102.671 32.425 102.516 33.0508 102.209 33.5895C101.901 34.1282 101.469 34.5492 100.917 34.854C100.363 35.1572 99.716 35.3105 98.976 35.3105ZM98.976 33.8896C99.6333 33.8896 100.124 33.6879 100.443 33.2863C100.763 32.8831 100.923 32.3638 100.923 31.7267C100.923 31.0896 100.762 30.5428 100.436 30.1509C100.111 29.759 99.6244 29.5622 98.976 29.5622C98.5328 29.5622 98.167 29.6542 97.8823 29.8364C97.596 30.0186 97.3849 30.2735 97.2476 30.5976C97.1107 30.9219 97.0423 31.2992 97.0423 31.7267C97.0423 32.3847 97.2054 32.9105 97.5328 33.3024C97.8597 33.6944 98.3412 33.8911 98.976 33.8911V33.8896Z" fill="#321149"/>
<path d="M104.166 35.1215V28.3281H107.532C107.775 28.3281 108 28.341 108.211 28.3652C108.422 28.391 108.601 28.4217 108.752 28.4588C109.109 28.5555 109.424 28.7426 109.698 29.0216C109.972 29.3007 110.11 29.6845 110.11 30.1765C110.11 30.4652 110.059 30.7039 109.958 30.891C109.858 31.0781 109.724 31.2345 109.561 31.3603C109.484 31.4184 109.403 31.47 109.322 31.5119C109.239 31.5539 109.157 31.5877 109.076 31.6119C109.253 31.6377 109.424 31.6861 109.584 31.7571C109.835 31.87 110.046 32.0377 110.219 32.2603C110.391 32.4828 110.475 32.7958 110.475 33.1973C110.475 33.6538 110.355 34.0393 110.115 34.3522C109.875 34.6651 109.524 34.8812 109.062 35.0038C108.893 35.0457 108.698 35.0764 108.48 35.0957C108.262 35.1151 108.037 35.1247 107.809 35.1247H104.168L104.166 35.1215ZM105.84 31.1329H107.211C107.353 31.1329 107.49 31.1264 107.625 31.1103C107.761 31.0958 107.873 31.07 107.965 31.0313C108.116 30.9764 108.227 30.8845 108.297 30.7538C108.368 30.6232 108.403 30.4797 108.403 30.32C108.403 30.1522 108.362 30.0007 108.283 29.8636C108.202 29.7281 108.075 29.6361 107.903 29.5894C107.789 29.5475 107.65 29.5249 107.489 29.52C107.327 29.5152 107.221 29.5136 107.178 29.5136H105.841V31.1296L105.84 31.1329ZM105.84 33.9506H107.691C107.788 33.9506 107.891 33.9425 108.005 33.9248C108.12 33.9086 108.222 33.8844 108.313 33.8554C108.478 33.8006 108.598 33.7038 108.673 33.5667C108.749 33.428 108.786 33.2845 108.786 33.1329C108.786 32.928 108.73 32.7635 108.617 32.6393C108.504 32.5151 108.371 32.4328 108.216 32.3909C108.125 32.3571 108.024 32.3377 107.918 32.3313C107.81 32.3248 107.722 32.3216 107.654 32.3216H105.838V33.9506H105.84Z" fill="#321149"/>
<path d="M111.837 35.1215L111.83 28.3281H113.483V30.5926H114.312C114.518 30.5926 114.75 30.5974 115.009 30.6055C115.267 30.6135 115.483 30.6329 115.657 30.6619C116.074 30.7458 116.429 30.8797 116.722 31.0651C117.017 31.249 117.243 31.4909 117.397 31.7877C117.552 32.0861 117.631 32.4442 117.631 32.8635C117.631 33.4635 117.462 33.9425 117.123 34.3006C116.786 34.6586 116.311 34.9038 115.704 35.0328C115.527 35.0699 115.304 35.0941 115.04 35.1054C114.775 35.1167 114.539 35.1215 114.333 35.1215H111.837ZM113.483 33.9329H114.476C114.576 33.9329 114.689 33.928 114.812 33.9199C114.935 33.9119 115.051 33.8925 115.161 33.8635C115.367 33.8135 115.55 33.699 115.71 33.5199C115.87 33.3425 115.949 33.1232 115.949 32.8619C115.949 32.6006 115.868 32.3651 115.71 32.1893C115.55 32.0135 115.353 31.8974 115.121 31.8442C115.012 31.8184 114.901 31.8022 114.789 31.7942C114.676 31.7861 114.573 31.7812 114.477 31.7812H113.484V33.9329H113.483ZM118.405 35.1215V28.3281H120.057V35.1215H118.405Z" fill="#321149"/>
<path d="M128.393 28.3285V35.1219H126.809V30.6881L123.285 35.1219H121.961V28.3285H123.545V32.6493L127.081 28.3285H128.391H128.393ZM125.398 27.5607C125.018 27.5607 124.671 27.4752 124.355 27.3027C124.04 27.1301 123.789 26.901 123.601 26.614C123.413 26.3269 123.32 26.0076 123.32 25.6543H124.608C124.608 25.8559 124.686 26.0269 124.839 26.1672C124.991 26.3075 125.178 26.3785 125.398 26.3785C125.617 26.3785 125.804 26.3075 125.957 26.1672C126.109 26.0269 126.187 25.8559 126.187 25.6543H127.476C127.476 26.0059 127.383 26.3269 127.194 26.614C127.006 26.901 126.755 27.1317 126.44 27.3027C126.125 27.4752 125.777 27.5607 125.398 27.5607Z" fill="#321149"/>
<path d="M133.041 38.1407V28.328H134.502V33.0956H134.707V38.1407H133.041ZM136.613 35.3101C135.89 35.3101 135.286 35.1537 134.797 34.8391C134.308 34.5246 133.939 34.0956 133.693 33.5521C133.447 33.0086 133.322 32.4005 133.322 31.7247C133.322 31.0489 133.445 30.4296 133.693 29.8876C133.939 29.3473 134.301 28.9199 134.779 28.607C135.257 28.2941 135.848 28.1377 136.551 28.1377C137.254 28.1377 137.857 28.2941 138.37 28.607C138.884 28.9199 139.283 29.3457 139.568 29.8844C139.85 30.4231 139.993 31.036 139.993 31.7247C139.993 32.4134 139.854 33.015 139.575 33.5553C139.295 34.0956 138.903 34.5246 138.395 34.8391C137.887 35.1537 137.293 35.3101 136.613 35.3101ZM136.359 33.952C136.788 33.952 137.144 33.8537 137.422 33.6569C137.701 33.4601 137.907 33.1924 138.042 32.8553C138.177 32.5182 138.244 32.1408 138.244 31.7263C138.244 31.3118 138.176 30.9409 138.038 30.6037C137.902 30.2667 137.688 29.9973 137.4 29.7989C137.112 29.6006 136.746 29.5006 136.304 29.5006C135.86 29.5006 135.54 29.5941 135.275 29.7812C135.009 29.9683 134.815 30.2279 134.69 30.5618C134.563 30.8957 134.502 31.2844 134.502 31.7279C134.502 32.1715 134.565 32.5553 134.69 32.8908C134.815 33.2263 135.015 33.4876 135.286 33.6747C135.558 33.8617 135.915 33.9553 136.358 33.9553L136.359 33.952Z" fill="#321149"/>
<path d="M144.866 35.3105C144.117 35.3105 143.458 35.1621 142.893 34.8637C142.326 34.5653 141.883 34.1524 141.565 33.625C141.247 33.096 141.089 32.4895 141.089 31.8008C141.089 31.0589 141.244 30.4138 141.555 29.8671C141.866 29.3203 142.296 28.8945 142.85 28.5928C143.404 28.2913 144.044 28.1396 144.77 28.1396C145.538 28.1396 146.19 28.3042 146.726 28.6332C147.263 28.9622 147.662 29.4267 147.923 30.0267C148.184 30.6267 148.282 31.3331 148.218 32.146H146.58V31.5928C146.575 30.8541 146.434 30.3154 146.155 29.9767C145.875 29.6364 145.438 29.467 144.838 29.467C144.161 29.467 143.659 29.659 143.33 30.0429C143.001 30.4267 142.836 30.988 142.836 31.7251C142.836 32.4121 143.001 32.946 143.33 33.3234C143.659 33.7008 144.139 33.8896 144.77 33.8896C145.176 33.8896 145.527 33.8073 145.823 33.6412C146.118 33.475 146.345 33.2347 146.505 32.9218L148.136 33.375C147.853 33.9879 147.415 34.4637 146.823 34.8024C146.23 35.1428 145.578 35.3121 144.866 35.3121V35.3105ZM142.316 32.146V31.0009H147.41V32.146H142.316Z" fill="#321149"/>
<path d="M152.969 35.3108C152.206 35.3108 151.554 35.1543 151.016 34.8414C150.476 34.5285 150.065 34.1027 149.779 33.5608C149.492 33.0189 149.348 32.4076 149.343 31.7237C149.348 31.027 149.498 30.4109 149.791 29.8706C150.086 29.3319 150.505 28.9077 151.05 28.5996C151.593 28.2916 152.24 28.1367 152.99 28.1367C153.831 28.1367 154.542 28.3303 155.126 28.719C155.708 29.1077 156.09 29.6367 156.267 30.3076L154.622 30.7173C154.493 30.3528 154.281 30.0689 153.983 29.8657C153.686 29.6625 153.349 29.5609 152.969 29.5609C152.54 29.5609 152.185 29.6545 151.908 29.8415C151.628 30.0286 151.422 30.2851 151.291 30.6125C151.159 30.9399 151.092 31.3109 151.092 31.7254C151.092 32.3705 151.25 32.8931 151.565 33.2915C151.879 33.6898 152.349 33.8899 152.969 33.8899C153.409 33.8899 153.755 33.7979 154.008 33.6124C154.261 33.4286 154.453 33.1624 154.581 32.814L156.267 33.1592C156.039 33.8511 155.638 34.3834 155.068 34.7543C154.497 35.1253 153.797 35.3108 152.971 35.3108H152.969Z" fill="#321149"/>
<path d="M158.345 38.1408L159.77 34.549L159.799 35.6054L156.569 28.3281H158.29L160.581 33.7119H160.141L162.369 28.3281H164.021L159.894 38.1408H158.345Z" fill="#321149"/>
<path d="M165.028 38.1407V28.328H166.489V33.0956H166.695V38.1407H165.028ZM168.6 35.3101C167.878 35.3101 167.273 35.1537 166.785 34.8391C166.296 34.5246 165.927 34.0956 165.68 33.5521C165.435 33.0086 165.309 32.4005 165.309 31.7247C165.309 31.0489 165.433 30.4296 165.68 29.8876C165.927 29.3473 166.289 28.9199 166.767 28.607C167.245 28.2941 167.836 28.1377 168.539 28.1377C169.242 28.1377 169.845 28.2941 170.358 28.607C170.871 28.9199 171.27 29.3457 171.555 29.8844C171.838 30.4231 171.98 31.036 171.98 31.7247C171.98 32.4134 171.841 33.015 171.562 33.5553C171.283 34.0956 170.891 34.5246 170.383 34.8391C169.875 35.1537 169.28 35.3101 168.6 35.3101ZM168.347 33.952C168.776 33.952 169.131 33.8537 169.409 33.6569C169.688 33.4601 169.894 33.1924 170.029 32.8553C170.165 32.5182 170.231 32.1408 170.231 31.7263C170.231 31.3118 170.163 30.9409 170.026 30.6037C169.889 30.2667 169.676 29.9973 169.388 29.7989C169.099 29.6006 168.734 29.5006 168.291 29.5006C167.848 29.5006 167.528 29.5941 167.263 29.7812C166.997 29.9683 166.802 30.2279 166.677 30.5618C166.55 30.8957 166.489 31.2844 166.489 31.7279C166.489 32.1715 166.553 32.5553 166.677 32.8908C166.802 33.2263 167.003 33.4876 167.273 33.6747C167.546 33.8617 167.903 33.9553 168.345 33.9553L168.347 33.952Z" fill="#321149"/>
<path d="M176.702 35.3108C175.94 35.3108 175.288 35.1543 174.75 34.8414C174.21 34.5285 173.799 34.1027 173.512 33.5608C173.226 33.0189 173.081 32.4076 173.076 31.7237C173.081 31.027 173.231 30.4109 173.525 29.8706C173.82 29.3319 174.238 28.9077 174.783 28.5996C175.326 28.2916 175.973 28.1367 176.724 28.1367C177.564 28.1367 178.276 28.3303 178.859 28.719C179.441 29.1077 179.823 29.6367 180 30.3076L178.355 30.7173C178.227 30.3528 178.014 30.0689 177.717 29.8657C177.42 29.6625 177.082 29.5609 176.702 29.5609C176.274 29.5609 175.919 29.6545 175.641 29.8415C175.361 30.0286 175.156 30.2851 175.024 30.6125C174.892 30.9399 174.825 31.3109 174.825 31.7254C174.825 32.3705 174.984 32.8931 175.298 33.2915C175.613 33.6898 176.082 33.8899 176.702 33.8899C177.142 33.8899 177.488 33.7979 177.741 33.6124C177.995 33.4286 178.186 33.1624 178.315 32.814L180 33.1592C179.772 33.8511 179.371 34.3834 178.801 34.7543C178.23 35.1253 177.53 35.3108 176.705 35.3108H176.702Z" fill="#321149"/>
</g>
</svg>
