<svg width="100" height="101" viewBox="0 0 100 101" fill="none" xmlns="http://www.w3.org/2000/svg">
<circle cx="50" cy="51" r="48.5" stroke="#182A49" stroke-opacity="0.5" stroke-width="3"/>
<path d="M98.5 50.9995C98.5 44.3594 96.6357 37.7886 93.9899 31.6861C91.3441 25.5835 87.4721 20.0766 82.6089 15.4996C77.7457 10.9227 71.9929 7.37126 65.6997 5.06098C59.4065 2.7507 52.7043 2.16908 46 2.49951" stroke="#182A49" stroke-width="3"/>
<circle cx="50.0077" cy="38.5048" r="7.50188" stroke="#182A49" stroke-width="2.17661" stroke-linecap="round"/>
<path d="M65.0114 63.5109C65.0114 70.4162 56.913 71.0128 50.0077 71.0128C43.1024 71.0128 35.0039 70.4162 35.0039 63.5109C35.0039 56.6057 43.1024 51.0078 50.0077 51.0078C56.913 51.0078 65.0114 56.6057 65.0114 63.5109Z" stroke="#182A49" stroke-width="2.17661" stroke-linecap="round"/>
<path d="M63.5195 46.9099C67.2218 46.9099 70.223 43.9086 70.223 40.2064C70.223 36.5042 67.2218 33.5029 63.5195 33.5029" stroke="#182A49" stroke-width="2.17661" stroke-linecap="round"/>
<path d="M73.5747 61.0091C73.5747 55.0921 69.1383 49.8912 63.5195 46.9092" stroke="#182A49" stroke-width="2.17661" stroke-linecap="round"/>
<path d="M35.0566 46.9099C31.3544 46.9099 28.3532 43.9086 28.3532 40.2064C28.3532 36.5042 31.3544 33.5029 35.0566 33.5029" stroke="#182A49" stroke-width="2.17661" stroke-linecap="round"/>
<path d="M25.0014 61.0091C25.0014 55.0921 29.4379 49.8912 35.0566 46.9092" stroke="#182A49" stroke-width="2.17661" stroke-linecap="round"/>
</svg>
