<svg width="101" height="101" viewBox="0 0 101 101" fill="none" xmlns="http://www.w3.org/2000/svg">
<circle cx="50" cy="51" r="48.5" stroke="#182A49" stroke-opacity="0.5" stroke-width="3"/>
<path d="M1.50021 51C1.50021 41.1109 4.50617 31.7225 10.0002 23.5C15.4943 15.2775 22.3639 9.78438 31.5002 6C40.6366 2.21562 50.3012 1.57073 60.0002 3.5C69.6993 5.42926 77.0076 9.50737 84.0002 16.5C90.9929 23.4926 95.571 31.8009 97.5002 41.5C99.4295 51.1991 98.7846 60.3637 95.0002 69.5C91.2159 78.6363 84.7227 86.0059 76.5002 91.5C68.2778 96.9941 59.3893 99.5 49.5002 99.5" stroke="#182A49" stroke-width="3"/>
<path d="M50 24V60.0656" stroke="#182A49" stroke-width="5.0747" stroke-linecap="round"/>
<path d="M50 78.0986V79.0003" stroke="#182A49" stroke-width="5.0747" stroke-linecap="round"/>
</svg>
