<svg width="335" height="292" viewBox="0 0 335 292" fill="none" xmlns="http://www.w3.org/2000/svg">
<path d="M38.9446 21H258.78C349.186 21 352.942 150.343 258.78 150.343H83.8628C2.0833 150.343 0.677877 275 83.8627 275H297.191" stroke="#F1F3F9" stroke-width="4"/>
<path d="M23.8027 5C32.4931 5 39.6152 12.1209 39.6152 21C39.6152 29.8791 32.4931 37 23.8027 37C15.1125 36.9998 7.99121 29.8789 7.99121 21C7.99121 12.1211 15.1125 5.00023 23.8027 5Z" stroke="#F1F3F9" stroke-width="10"/>
<path d="M314.188 255C322.879 255 330.001 262.121 330.001 271C330.001 279.879 322.879 287 314.188 287C305.498 287 298.377 279.879 298.377 271C298.377 262.121 305.498 255 314.188 255Z" stroke="#F1F3F9" stroke-width="10"/>
<ellipse cx="313.812" cy="37" rx="20.8119" ry="21" fill="#F1F3F9"/>
<ellipse cx="313.812" cy="37" rx="10.9015" ry="11" fill="#2D6BD9"/>
<ellipse cx="313.812" cy="129" rx="20.8119" ry="21" fill="#F1F3F9"/>
<ellipse cx="313.812" cy="129" rx="10.9015" ry="11" fill="#2D6BD9"/>
<ellipse cx="20.8119" cy="218" rx="20.8119" ry="21" fill="#F1F3F9"/>
<ellipse cx="20.8116" cy="218" rx="10.9015" ry="11" fill="#2D6BD9"/>
</svg>
